<svg xmlns="http://www.w3.org/2000/svg" width="27.456" height="20.914" viewBox="0 0 27.456 20.914"><defs><style>.a{fill:#022665;}</style></defs><g transform="translate(0 -61)"><g transform="translate(0 61)"><path class="a" d="M25.043,61H2.413A2.417,2.417,0,0,0,0,63.413V79.5a2.417,2.417,0,0,0,2.413,2.413h22.63A2.417,2.417,0,0,0,27.456,79.5V63.413A2.417,2.417,0,0,0,25.043,61Zm-.333,1.609L13.779,73.539,2.754,62.609ZM1.609,79.168V63.739L9.357,71.42Zm1.138,1.138L10.5,72.553l2.717,2.693a.8.8,0,0,0,1.135,0L17,72.595l7.711,7.711Zm23.1-1.138-7.711-7.711,7.711-7.711Z" transform="translate(0 -61)"/></g></g></svg>